<?xml version="1.0" encoding="UTF-8" standalone="no"?>
<!DOCTYPE svg PUBLIC "-//W3C//DTD SVG 1.1//EN"
 "http://www.w3.org/Graphics/SVG/1.1/DTD/svg11.dtd">
<!-- Generated by graphviz version 2.46.0 (20210118.1747)
 -->
<!-- Title: Tree Pages: 1 -->
<svg width="730pt" height="269pt"
 viewBox="0.00 0.00 730.00 269.00" xmlns="http://www.w3.org/2000/svg" xmlns:xlink="http://www.w3.org/1999/xlink">
<g id="graph0" class="graph" transform="scale(1 1) rotate(0) translate(4 265)">
<title>Tree</title>
<polygon fill="white" stroke="transparent" points="-4,4 -4,-265 726,-265 726,4 -4,4"/>
<!-- 0 -->
<g id="node1" class="node">
<title>0</title>
<path fill="#f8ddca" stroke="black" d="M432,-261C432,-261 289,-261 289,-261 283,-261 277,-255 277,-249 277,-249 277,-205 277,-205 277,-199 283,-193 289,-193 289,-193 432,-193 432,-193 438,-193 444,-199 444,-205 444,-205 444,-249 444,-249 444,-255 438,-261 432,-261"/>
<text text-anchor="start" x="326" y="-245.8" font-family="Helvetica,sans-Serif" font-size="14.00">rm ≤ 6.941</text>
<text text-anchor="start" x="285" y="-230.8" font-family="Helvetica,sans-Serif" font-size="14.00">squared_error = 86.873</text>
<text text-anchor="start" x="313" y="-215.8" font-family="Helvetica,sans-Serif" font-size="14.00">samples = 404</text>
<text text-anchor="start" x="313.5" y="-200.8" font-family="Helvetica,sans-Serif" font-size="14.00">value = 22.797</text>
</g>
<!-- 1 -->
<g id="node2" class="node">
<title>1</title>
<path fill="#fbe9dd" stroke="black" d="M340,-157C340,-157 197,-157 197,-157 191,-157 185,-151 185,-145 185,-145 185,-101 185,-101 185,-95 191,-89 197,-89 197,-89 340,-89 340,-89 346,-89 352,-95 352,-101 352,-101 352,-145 352,-145 352,-151 346,-157 340,-157"/>
<text text-anchor="start" x="233.5" y="-141.8" font-family="Helvetica,sans-Serif" font-size="14.00">lstat ≤ 14.4</text>
<text text-anchor="start" x="193" y="-126.8" font-family="Helvetica,sans-Serif" font-size="14.00">squared_error = 40.321</text>
<text text-anchor="start" x="221" y="-111.8" font-family="Helvetica,sans-Serif" font-size="14.00">samples = 337</text>
<text text-anchor="start" x="221.5" y="-96.8" font-family="Helvetica,sans-Serif" font-size="14.00">value = 19.947</text>
</g>
<!-- 0&#45;&gt;1 -->
<g id="edge1" class="edge">
<title>0&#45;&gt;1</title>
<path fill="none" stroke="black" d="M330.63,-192.88C322.6,-183.98 313.81,-174.24 305.44,-164.96"/>
<polygon fill="black" stroke="black" points="307.83,-162.38 298.53,-157.3 302.63,-167.07 307.83,-162.38"/>
<text text-anchor="middle" x="297.25" y="-178.57" font-family="Helvetica,sans-Serif" font-size="14.00">True</text>
</g>
<!-- 4 -->
<g id="node5" class="node">
<title>4</title>
<path fill="#eca16b" stroke="black" d="M525,-157C525,-157 382,-157 382,-157 376,-157 370,-151 370,-145 370,-145 370,-101 370,-101 370,-95 376,-89 382,-89 382,-89 525,-89 525,-89 531,-89 537,-95 537,-101 537,-101 537,-145 537,-145 537,-151 531,-157 525,-157"/>
<text text-anchor="start" x="419" y="-141.8" font-family="Helvetica,sans-Serif" font-size="14.00">rm ≤ 7.437</text>
<text text-anchor="start" x="378" y="-126.8" font-family="Helvetica,sans-Serif" font-size="14.00">squared_error = 74.684</text>
<text text-anchor="start" x="410" y="-111.8" font-family="Helvetica,sans-Serif" font-size="14.00">samples = 67</text>
<text text-anchor="start" x="406.5" y="-96.8" font-family="Helvetica,sans-Serif" font-size="14.00">value = 37.131</text>
</g>
<!-- 0&#45;&gt;4 -->
<g id="edge4" class="edge">
<title>0&#45;&gt;4</title>
<path fill="none" stroke="black" d="M390.69,-192.88C398.82,-183.98 407.7,-174.24 416.16,-164.96"/>
<polygon fill="black" stroke="black" points="418.99,-167.05 423.14,-157.3 413.81,-162.33 418.99,-167.05"/>
<text text-anchor="middle" x="424.29" y="-178.57" font-family="Helvetica,sans-Serif" font-size="14.00">False</text>
</g>
<!-- 2 -->
<g id="node3" class="node">
<title>2</title>
<path fill="#f8dbc7" stroke="black" d="M155,-53C155,-53 12,-53 12,-53 6,-53 0,-47 0,-41 0,-41 0,-12 0,-12 0,-6 6,0 12,0 12,0 155,0 155,0 161,0 167,-6 167,-12 167,-12 167,-41 167,-41 167,-47 161,-53 155,-53"/>
<text text-anchor="start" x="8" y="-37.8" font-family="Helvetica,sans-Serif" font-size="14.00">squared_error = 25.693</text>
<text text-anchor="start" x="36" y="-22.8" font-family="Helvetica,sans-Serif" font-size="14.00">samples = 203</text>
<text text-anchor="start" x="36.5" y="-7.8" font-family="Helvetica,sans-Serif" font-size="14.00">value = 23.325</text>
</g>
<!-- 1&#45;&gt;2 -->
<g id="edge2" class="edge">
<title>1&#45;&gt;2</title>
<path fill="none" stroke="black" d="M203.8,-88.95C183.92,-78.79 162.15,-67.67 142.66,-57.72"/>
<polygon fill="black" stroke="black" points="144.09,-54.52 133.59,-53.09 140.9,-60.75 144.09,-54.52"/>
</g>
<!-- 3 -->
<g id="node4" class="node">
<title>3</title>
<path fill="#ffffff" stroke="black" d="M340,-53C340,-53 197,-53 197,-53 191,-53 185,-47 185,-41 185,-41 185,-12 185,-12 185,-6 191,0 197,0 197,0 340,0 340,0 346,0 352,-6 352,-12 352,-12 352,-41 352,-41 352,-47 346,-53 340,-53"/>
<text text-anchor="start" x="193" y="-37.8" font-family="Helvetica,sans-Serif" font-size="14.00">squared_error = 19.005</text>
<text text-anchor="start" x="221" y="-22.8" font-family="Helvetica,sans-Serif" font-size="14.00">samples = 134</text>
<text text-anchor="start" x="221.5" y="-7.8" font-family="Helvetica,sans-Serif" font-size="14.00">value = 14.829</text>
</g>
<!-- 1&#45;&gt;3 -->
<g id="edge3" class="edge">
<title>1&#45;&gt;3</title>
<path fill="none" stroke="black" d="M268.5,-88.95C268.5,-80.72 268.5,-71.85 268.5,-63.48"/>
<polygon fill="black" stroke="black" points="272,-63.24 268.5,-53.24 265,-63.24 272,-63.24"/>
</g>
<!-- 5 -->
<g id="node6" class="node">
<title>5</title>
<path fill="#f0b58b" stroke="black" d="M525,-53C525,-53 382,-53 382,-53 376,-53 370,-47 370,-41 370,-41 370,-12 370,-12 370,-6 376,0 382,0 382,0 525,0 525,0 531,0 537,-6 537,-12 537,-12 537,-41 537,-41 537,-47 531,-53 525,-53"/>
<text text-anchor="start" x="378" y="-37.8" font-family="Helvetica,sans-Serif" font-size="14.00">squared_error = 38.306</text>
<text text-anchor="start" x="410" y="-22.8" font-family="Helvetica,sans-Serif" font-size="14.00">samples = 41</text>
<text text-anchor="start" x="406.5" y="-7.8" font-family="Helvetica,sans-Serif" font-size="14.00">value = 32.363</text>
</g>
<!-- 4&#45;&gt;5 -->
<g id="edge5" class="edge">
<title>4&#45;&gt;5</title>
<path fill="none" stroke="black" d="M453.5,-88.95C453.5,-80.72 453.5,-71.85 453.5,-63.48"/>
<polygon fill="black" stroke="black" points="457,-63.24 453.5,-53.24 450,-63.24 457,-63.24"/>
</g>
<!-- 6 -->
<g id="node7" class="node">
<title>6</title>
<path fill="#e58139" stroke="black" d="M710,-53C710,-53 567,-53 567,-53 561,-53 555,-47 555,-41 555,-41 555,-12 555,-12 555,-6 561,0 567,0 567,0 710,0 710,0 716,0 722,-6 722,-12 722,-12 722,-41 722,-41 722,-47 716,-53 710,-53"/>
<text text-anchor="start" x="563" y="-37.8" font-family="Helvetica,sans-Serif" font-size="14.00">squared_error = 39.671</text>
<text text-anchor="start" x="595" y="-22.8" font-family="Helvetica,sans-Serif" font-size="14.00">samples = 26</text>
<text text-anchor="start" x="595.5" y="-7.8" font-family="Helvetica,sans-Serif" font-size="14.00">value = 44.65</text>
</g>
<!-- 4&#45;&gt;6 -->
<g id="edge6" class="edge">
<title>4&#45;&gt;6</title>
<path fill="none" stroke="black" d="M518.2,-88.95C538.08,-78.79 559.85,-67.67 579.34,-57.72"/>
<polygon fill="black" stroke="black" points="581.1,-60.75 588.41,-53.09 577.91,-54.52 581.1,-60.75"/>
</g>
</g>
</svg>
